# xmcd
# Track frame offsets:
# 150
# 17547
# 37542
# 52578
# 69070
# 83201
# 100083
# 120525
# 133861
# 151607
# 167019
# 180460
# 197056
# 209152
# 227887
# 245341
# 263735
# 287764
# 302598
# 318706
#
# Disc length: 4476 seconds
# Revision: 0
# Processed by: cddbd v1.5.1PL0 Copyright (c) Steve Scherf et al.
# Submitted via: VisiTrax 2.9.10.228 - For more info visit www.synapsa.com
#
DISCID=fd117a14
DTITLE=Bonnie Raitt - The Bonnie Raitt Collection
DYEAR=1900
DGENRE=Country
TTITLE0=Finest Lovin' Man
TTITLE1=Give It Up or Let Me Go
TTITLE2=Women Be Wise
TTITLE3=Under the Falling Sky
TTITLE4=Love Me Like a Man
TTITLE5=Love Has No Pride
TTITLE6=I Feel the Same
TTITLE7=Guilty
TTITLE8=Angel from Montgomery [Live]
TTITLE9=What Is Success
TTITLE10=My First Night Alone Without You
TTITLE11=Sugar Mama
TTITLE12=Louise
TTITLE13=About to Make Me Leave Home
TTITLE14=Runaway
TTITLE15=The Glow
TTITLE16=(Goin') Wild for You Baby
TTITLE17=Willya Wontcha
TTITLE18=True Love Is Hard to Find
TTITLE19=No Way to Treat a Lady
EXTD=
EXTT0=
EXTT1=
EXTT2=
EXTT3=
EXTT4=
EXTT5=
EXTT6=
EXTT7=
EXTT8=
EXTT9=
EXTT10=
EXTT11=
EXTT12=
EXTT13=
EXTT14=
EXTT15=
EXTT16=
EXTT17=
EXTT18=
EXTT19=
PLAYORDER=
